<?xml version="1.0" encoding="UTF-8"?>
<svg width="356px" height="104px" viewBox="0 0 356 104" version="1.1" xmlns="http://www.w3.org/2000/svg" xmlns:xlink="http://www.w3.org/1999/xlink">
    <title>DBB2EAE4-E5FC-4B22-8B72-0A56133D9E14</title>
    <defs>
        <rect id="path-1" x="0" y="0" width="356" height="104"></rect>
        <polygon id="path-3" points="0 0 5.06231992 0 5.06231992 4.59358891 0 4.59358891"></polygon>
    </defs>
    <g id="Component" stroke="none" stroke-width="1" fill="none" fill-rule="evenodd">
        <g id="Header" transform="translate(-542.000000, -362.000000)">
            <g id="Header/desktop" transform="translate(0.000000, 322.000000)">
                <g id="Logo" transform="translate(542.000000, 40.000000)">
                    <mask id="mask-2" fill="white">
                        <use xlink:href="#path-1"></use>
                    </mask>
                    <use id="Mask" fill-opacity="0" fill="#FFFFFF" xlink:href="#path-1"></use>
                    <g id="Group" mask="url(#mask-2)">
                        <g transform="translate(84.000000, 2.000000)" id="Logo/La-Marca">
                            <g id="30_Logo-LAM-Primary-ID_4C" transform="translate(0.994709, 0.980392)">
                                <path d="M95.2642893,23.5712549 C95.2642893,24.1930243 93.6934947,24.6861518 91.7580728,24.6861518 C89.8311026,24.6861518 88.2723816,24.1930243 88.2723816,23.5712549 C88.2723816,22.9578234 89.8311026,22.4599314 91.7580728,22.4599314 C93.6934947,22.4599314 95.2642893,22.9578234 95.2642893,23.5712549" id="Fill-1" fill="#949594"></path>
                                <path d="M97.9845048,23.7082347 C98.0243482,23.1900936 99.183428,22.8506217 100.60813,22.9316185 C102.003856,23.0507314 103.106189,23.5343299 103.082041,24.0572356 C103.036161,24.5908614 101.877081,24.9303333 100.469282,24.8278961 C99.0711422,24.7326058 97.9555278,24.2251848 97.9845048,23.7082347" id="Fill-2" fill="#949594"></path>
                                <path d="M105.292745,24.2764033 C105.345869,23.8023339 105.904884,23.4807291 106.526682,23.5343299 C107.17142,23.6069888 107.637467,24.0322219 107.604868,24.4979534 C107.55778,24.9720228 106.996351,25.3067301 106.364894,25.2376446 C105.734644,25.1792792 105.242035,24.752855 105.292745,24.2764033" id="Fill-3" fill="#949594"></path>
                                <path d="M91.7580728,6.07952322 C92.1408106,6.07952322 92.4885346,6.20220952 92.7843414,6.37492325 C92.9425075,6.20220952 93.024609,5.96279256 93.024609,5.74838931 C93.024609,5.15997151 92.4583502,4.70853356 91.7315106,4.70853356 C91.008293,4.70853356 90.4203015,5.15997151 90.4203015,5.74838931 C90.4203015,5.99018853 90.5180988,6.21888533 90.7004124,6.39517244 C91.008293,6.20459178 91.3620539,6.07952322 91.7580728,6.07952322" id="Fill-4" fill="#949594"></path>
                                <path d="M91.7580728,7.91267099 C92.4583502,7.91267099 93.0475491,8.23784925 93.4653008,8.75241704 C93.4894483,8.61662832 93.4894483,8.49394202 93.4894483,8.34981539 C93.4894483,7.39333868 92.7336317,6.61910472 91.7870498,6.61910472 C90.8428827,6.61910472 90.0725775,7.39333868 90.0725775,8.34981539 C90.0725775,8.46654605 90.0834439,8.59637912 90.116043,8.71310978 C90.512062,8.21521779 91.1024683,7.91267099 91.7580728,7.91267099" id="Fill-5" fill="#949594"></path>
                                <path d="M91.7315106,9.88518087 C92.5670139,9.88518087 93.3288675,10.2591954 93.8818451,10.8738181 C93.8263059,9.65291069 92.8833461,8.68690494 91.7580728,8.68690494 C90.6593617,8.68690494 89.7550379,9.60169213 89.6608627,10.7737632 C90.2041814,10.2222704 90.9322284,9.88518087 91.7315106,9.88518087" id="Fill-6" fill="#949594"></path>
                                <path d="M91.7315106,11.8838956 C92.2627555,11.8838956 93.3892362,12.8391812 94.1981773,13.4931111 C94.2187027,13.3608958 94.2428502,13.2215336 94.2428502,13.0928917 C94.2428502,11.7528714 93.1139547,10.6594148 91.7484138,10.6594148 C90.3695917,10.6594148 89.2443184,11.7528714 89.2443184,13.0928917 C89.2443184,13.2072401 89.2648438,13.3239707 89.281747,13.4395103 C90.24161,12.6557473 91.2232057,11.8838956 91.7315106,11.8838956" id="Fill-7" fill="#949594"></path>
                                <path d="M94.4637998,4.05698591 C94.0025826,4.17848108 93.5956973,4.68113759 94.1535045,4.94556826 C95.913857,5.86750223 99.7098435,9.05258159 99.9730512,12.5092384 C100.002028,12.8367989 99.7569311,13.3930562 100.469282,12.8677683 C101.184048,12.3353335 102.223598,12.1507085 102.766917,12.9463828 C103.210023,13.5931659 103.871665,12.1626198 103.638641,11.2990512 C103.395959,10.4390559 102.782612,10.3735438 101.398961,10.9500503 C100.355789,11.3955326 99.9428668,9.93401717 100.734905,9.70412924 C101.52332,9.49210825 102.634105,10.4390559 103.082041,9.44803647 C103.522733,8.46178153 101.443634,7.81976291 100.617789,8.48679524 C99.434562,9.45994776 98.4698695,7.23253624 99.685696,7.57677257 C100.652803,7.83286534 100.983624,7.39333868 100.80614,6.93713621 C100.545347,6.29749985 99.3729859,5.98423288 98.5869849,6.61910472 C97.7828732,7.27660802 97.0041165,6.04140708 97.8782558,5.98423288 C98.3660353,5.94373449 98.5664595,5.79246109 98.5664595,5.43512234 C98.5664595,5.06706343 97.1465867,4.4691166 96.6563925,5.09684166 C96.0406313,5.86988448 94.8042795,4.77404566 95.5685478,4.71568033 C96.0406313,4.68113759 96.0164838,4.51080612 95.8377924,4.29044722 C95.6397829,4.06175042 95.0952568,3.84139153 94.4637998,4.05698591" id="Fill-8" fill="#949594"></path>
                                <path d="M95.7049811,3.56147618 C97.0777663,4.05698591 101.363947,5.44822476 103.508245,7.84715889 C105.650128,10.2544309 107.567439,13.8933305 107.734057,14.5794209 C107.904296,15.2750403 107.959836,14.8914967 108.619062,14.4567346 C109.292778,13.9957676 110.890134,13.6324732 110.083608,12.2209851 C109.708114,11.5694375 108.060048,12.809403 107.532425,11.6206561 C107.19436,10.8499955 108.509191,10.4545406 108.0359,9.57072277 C107.437042,8.43557669 106.15481,9.66839537 105.546293,8.82626705 C105.123712,8.2235557 106.149981,7.57677257 105.292745,6.87281523 C104.670947,6.37492325 103.817333,7.21228704 103.146032,6.61910472 C102.678778,6.2260321 103.371811,5.51135461 102.560455,5.09684166 C101.639228,4.59061177 101.216647,5.53755945 100.344923,5.05991666 C99.618083,4.66207952 100.202452,3.84139153 99.4876865,3.56147618 C98.445722,3.15887452 98.5543858,4.27615367 97.4122092,3.79493749 C96.3642078,3.38995358 96.8471577,3.00402773 96.1734426,2.79200674 C95.0783536,2.46563735 94.1800667,3.02427693 95.7049811,3.56147618" id="Fill-9" fill="#949594"></path>
                                <path d="M91.7580728,21.7214313 C85.4567835,21.7214313 83.2919604,22.0406539 79.1120288,22.2776886 C78.6701296,22.3015112 75.4234986,22.640983 75.0335166,22.687437 C74.4093038,22.7624782 73.6945379,21.5403797 73.6124364,21.0841772 C73.5653488,20.8614361 74.1871468,20.9376683 74.2438934,21.0031804 C74.8838021,21.6987998 74.9308897,21.9191587 75.2134154,22.2288523 C75.6311671,22.668379 76.0670294,22.5623685 76.0670294,22.5623685 C76.5028917,22.2288523 78.5783691,20.8197465 78.6991066,20.8125998 C78.9538627,20.7661457 78.5868207,20.8197465 79.6758728,20.7220739 C79.7543522,20.7125449 82.8488539,22.0215959 82.8488539,22.0215959 L86.1280839,20.4302473 C87.9705379,20.3706908 86.5228955,20.3980868 88.6925481,20.3980868 L91.7580728,21.7452539 L94.8272196,20.3980868 C97.018605,20.3980868 95.7049811,20.3706908 97.5595089,20.4302473 C97.5595089,20.4302473 100.53448,22.0406539 100.669706,22.0335071 C100.669706,22.0335071 103.707462,20.7125449 103.785941,20.7220739 C104.884652,20.8197465 104.737352,20.8197465 104.97279,20.8566715 C105.098357,20.8614361 106.713825,22.0335071 107.129162,22.3527298 C107.129162,22.3527298 107.437042,22.8875467 108.223043,22.3169959 C108.586463,22.059712 108.738592,21.7214313 109.390575,21.0686925 C109.448529,20.9841224 109.962871,20.8614361 109.915783,21.0841772 C109.833681,21.5403797 109.117708,22.7624782 108.509191,22.687437 C108.104721,22.640983 104.85809,22.3015112 104.414983,22.2776886 C100.224185,22.0406539 98.0786801,21.7214313 91.7580728,21.7214313" id="Fill-10" fill="#949594"></path>
                                <path d="M91.7037409,27.0422052 C85.6173644,27.1684649 79.3631627,27.3590456 77.2719895,27.5496263 C76.6876201,27.6008448 76.6224219,26.1536229 77.0655284,26.1024043 C80.13709,25.7438745 85.5787284,25.2793341 91.7580728,25.4377543 C97.9555278,25.6092769 103.395959,25.7438745 106.462691,26.1024043 C106.911834,26.1536229 106.836977,27.6008448 106.25623,27.5496263 C104.169886,27.3590456 97.7828732,26.9099899 91.7037409,27.0422052" id="Fill-11" fill="#949594"></path>
                                <path d="M85.5437145,23.7082347 C85.5038711,23.1900936 84.3351323,22.8506217 82.9273332,22.9316185 C81.5231563,23.0507314 80.4099567,23.5343299 80.4473853,24.0572356 C80.4799845,24.5908614 81.6656265,24.9303333 83.0710109,24.8278961 C84.4836394,24.7326058 85.5787284,24.2251848 85.5437145,23.7082347" id="Fill-12" fill="#949594"></path>
                                <path d="M78.2258156,24.2764033 C78.1920091,23.8023339 77.6305798,23.4807291 77.0003302,23.5343299 C76.3628363,23.6069888 75.8835085,24.0322219 75.9281813,24.4979534 C75.9788911,24.9720228 76.5342835,25.3067301 77.1633258,25.2376446 C77.7984049,25.1792792 78.2861844,24.752855 78.2258156,24.2764033" id="Fill-13" fill="#949594"></path>
                                <path d="M89.0644195,4.05698591 C89.513563,4.17848108 89.9264852,4.68113759 89.3831665,4.94556826 C87.6083255,5.86750223 83.8207906,9.05258159 83.5491313,12.5092384 C83.5310207,12.8367989 83.7857768,13.3930562 83.0710109,12.8677683 C82.3659039,12.3353335 81.3142805,12.1507085 80.7600954,12.9463828 C80.3073299,13.5931659 79.6468958,12.1626198 79.9016519,11.2990512 C80.1443343,10.4390559 80.7600954,10.3735438 82.1280511,10.9500503 C83.1748451,11.3955326 83.6022558,9.93401717 82.7993515,9.70412924 C81.9976546,9.49210825 80.894114,10.4390559 80.4473853,9.44803647 C79.9958271,8.46178153 82.105111,7.81976291 82.8959415,8.48679524 C84.1165975,9.45994776 85.0559351,7.23253624 83.850975,7.57677257 C82.8754161,7.83286534 82.5385586,7.39333868 82.7257017,6.93713621 C82.9792504,6.29749985 84.1479892,5.98423288 84.9484787,6.61910472 C85.7477609,7.27660802 86.5228955,6.04140708 85.6572078,5.98423288 C85.1670136,5.94373449 84.9665893,5.79246109 84.9665893,5.43512234 C84.9665893,5.06706343 86.3937064,4.4691166 86.8814858,5.09684166 C87.4924175,5.86988448 88.717903,4.77404566 87.9705379,4.71568033 C87.4924175,4.68113759 87.5153576,4.51080612 87.7061228,4.29044722 C87.8823996,4.06175042 88.4317551,3.84139153 89.0644195,4.05698591" id="Fill-14" fill="#949594"></path>
                                <path d="M87.8316898,3.56147618 C86.4673563,4.05698591 82.1703092,5.44822476 80.0187673,7.84715889 C77.8684327,10.2544309 75.9704394,13.8933305 75.791748,14.5794209 C75.6311671,15.2750403 75.5526877,14.8914967 74.9236455,14.4567346 C74.2414787,13.9957676 72.6465365,13.6324732 73.4349523,12.2209851 C73.8201049,11.5694375 75.4681715,12.809403 75.9933796,11.6206561 C76.3447256,10.8499955 75.0154059,10.4545406 75.4935264,9.57072277 C76.0960064,8.43557669 77.3577131,9.66839537 77.9783038,8.82626705 C78.4081292,8.2235557 77.3854827,7.57677257 78.2415115,6.87281523 C78.8500284,6.37492325 79.7036424,7.21228704 80.3761502,6.61910472 C80.8675518,6.2260321 80.156408,5.51135461 80.9689713,5.09684166 C81.9071015,4.59061177 82.3115721,5.53755945 83.1881262,5.05991666 C83.918588,4.66207952 83.3414628,3.84139153 84.0513992,3.56147618 C85.0957785,3.15887452 84.9786631,4.27615367 86.1341208,3.79493749 C87.1664263,3.38995358 86.6810616,3.00402773 87.3487399,2.79200674 C88.4402067,2.46563735 89.3529821,3.02427693 87.8316898,3.56147618" id="Fill-15" fill="#949594"></path>
                                <path d="M82.7993515,20.7613812 L85.0293728,19.6798359 C85.0293728,19.6798359 83.6408918,19.4844907 83.5853525,18.5816148 C83.5310207,17.6763567 85.032995,17.3976325 85.3420829,17.993197 C85.6415119,18.5947173 84.7214923,18.9723052 85.4604057,18.8889262 C86.6617436,18.7841068 87.0637994,16.8568598 86.2633099,16.0087759 C85.4567835,15.1499717 84.0658877,15.6657307 83.8207906,16.8199348 C83.6022558,17.8955245 82.3659039,16.8199348 83.0323749,16.3851727 C83.4670298,16.1124041 83.8304496,15.7896081 83.8063021,15.0642104 C83.7761178,14.3471507 82.4793972,13.6705893 82.0266316,13.3072949 C81.6740782,13.7658797 80.7757913,14.6890048 80.8868698,15.3989177 C80.9931188,16.1124041 81.4084557,16.3851727 81.8515623,16.5578864 C82.4600792,16.8568598 81.5304006,18.1182656 81.1633586,17.1153349 C80.7600954,16.0504654 79.573246,15.8336799 79.0890886,16.8199348 C78.613383,17.8133365 79.2991719,19.6095593 80.2662791,19.4844907 C80.8868698,19.3903915 80.0779286,19.2093399 80.214362,18.5673213 C80.3568322,17.9276849 81.6620044,17.8502615 81.7827419,18.7352705 C81.9227974,19.6309996 80.9194689,19.9728537 80.9194689,19.9728537 L82.7993515,20.7613812" id="Fill-16" fill="#949594"></path>
                                <path d="M75.9547436,21.2592732 L77.5267456,20.2813562 C77.5267456,20.2813562 76.6103481,20.1955949 76.2674537,19.3653778 C75.907656,18.5423076 76.5028917,18.0182108 76.9942933,18.4839423 C77.4820727,18.9413359 76.9025328,19.7072319 77.585907,19.3903915 C78.6749591,18.9091754 78.5904428,17.0128977 77.5593447,16.4756985 C76.5028917,15.9432638 75.3896921,16.3339541 75.5526877,17.4738647 C75.7482825,18.8889262 74.0229438,18.2111737 74.7340876,17.3023421 C75.0721526,16.8854469 75.2665399,16.2660598 74.773931,15.7288605 C74.065202,14.8914967 72.4726745,15.0403879 71.9281485,14.8355136 C71.739798,15.3989177 74.1968058,18.8067383 74.6109354,19.5905012 C74.9936732,20.3242368 75.9547436,21.2592732 75.9547436,21.2592732" id="Fill-17" fill="#949594"></path>
                                <path d="M91.7580728,20.4302473 L94.0206932,19.5726343 C94.0206932,19.5726343 92.82177,19.2677052 92.8736871,18.3553003 C92.9219821,17.4226462 94.5410718,17.254697 94.7789246,17.9062446 C95.031266,18.5577923 94.0206932,18.8377076 94.8042795,18.8627213 C96.0792673,18.8698681 96.7409087,16.9366655 95.9850921,15.9897178 C95.2256533,15.0308588 93.7164348,15.4310782 93.3361117,16.5578864 C92.9726919,17.6525341 91.7580728,16.3851727 92.5175116,16.0385541 C93.0161574,15.7896081 93.4653008,15.4822968 93.5063516,14.7521346 C93.5594761,13.9957676 92.3013915,13.1750796 91.7580728,12.7307884 C91.2376942,13.1750796 89.9759875,13.9957676 90.0242825,14.7521346 C90.0725775,15.4822968 90.4710112,15.7574476 90.9781087,16.0016291 C91.7315106,16.3661146 90.5180988,17.6084623 90.1595085,16.5459751 C89.7707338,15.4155935 88.2989439,15.0308588 87.5491641,15.9897178 C86.8017991,16.9366655 87.4453299,18.8698681 88.7130735,18.8627213 C89.4954524,18.8377076 88.5041976,18.5577923 88.7517095,17.9062446 C89.0052582,17.254697 90.6122741,17.4226462 90.6593617,18.3553003 C90.7004124,19.2677052 89.4954524,19.5726343 89.4954524,19.5726343 L91.7580728,20.4302473" id="Fill-18" fill="#949594"></path>
                                <path d="M100.743356,20.7613812 L98.5072981,19.6798359 C98.5072981,19.6798359 99.9078529,19.4844907 99.9549406,18.5816148 C100.011687,17.6763567 98.5072981,17.3976325 98.1909659,17.993197 C97.8927443,18.5947173 98.7970681,18.9723052 98.0617768,18.8889262 C96.87372,18.7841068 96.4607978,16.8568598 97.2781906,16.0087759 C98.0823022,15.1499717 99.434562,15.7360073 99.6724149,16.8735356 C99.8849128,17.9419785 101.197329,16.7591872 100.53448,16.3339541 C100.075678,16.0504654 99.685696,15.7896081 99.733991,15.0642104 C99.7569311,14.3471507 101.042785,13.6705893 101.496758,13.3072949 C101.866215,13.7658797 102.754843,14.6890048 102.634105,15.3989177 C102.525442,16.1124041 102.137874,16.3553945 101.727367,16.5459751 C101.11885,16.8199348 102.035247,18.0884874 102.426437,17.0831744 C102.832115,16.019496 103.948937,15.8336799 104.451204,16.8199348 C104.925703,17.8133365 104.229047,19.6095593 103.240207,19.4844907 C102.634105,19.3903915 103.443046,19.2093399 103.318687,18.5673213 C103.171387,17.9276849 101.877081,17.8502615 101.745477,18.7352705 C101.612666,19.6309996 102.609958,19.9728537 102.609958,19.9728537 L100.743356,20.7613812" id="Fill-19" fill="#949594"></path>
                                <path d="M107.587964,21.2592732 L106.021999,20.2813562 C106.021999,20.2813562 106.911834,20.1955949 107.257144,19.3653778 C107.616941,18.5423076 107.034987,18.0182108 106.542378,18.4839423 C106.05822,18.9413359 106.61965,19.7072319 105.954386,19.3903915 C104.85326,18.9091754 104.928118,17.0128977 105.979741,16.4756985 C107.031364,15.9432638 108.084195,16.3339541 107.928444,17.4738647 C107.738886,18.8889262 109.501653,18.2111737 108.795339,17.3023421 C108.462104,16.8854469 108.282205,16.2660598 108.738592,15.7288605 C109.472676,14.8914967 111.155757,15.0403879 111.714771,14.8355136 C111.904329,15.3989177 109.338658,18.8067383 108.917284,19.5905012 C108.547827,20.3242368 107.587964,21.2592732 107.587964,21.2592732" id="Fill-20" fill="#949594"></path>
                                <g id="Group-24" transform="translate(89.218424, 0.000000)">
                                    <mask id="mask-4" fill="white">
                                        <use xlink:href="#path-3"></use>
                                    </mask>
                                    <g id="Clip-22"></g>
                                    <path d="M2.52998993,4.24637544 C3.4814013,4.24637544 3.95469223,4.59061177 3.95469223,4.59061177 C4.4122873,4.17848108 3.88949399,3.40424713 2.52998993,3.40543826 C1.34676259,3.44355439 0.708061299,4.01529639 1.12702037,4.59061177 C1.43490095,4.46196982 1.78986915,4.24637544 2.52998993,4.24637544" id="Fill-21" fill="#949594" mask="url(#mask-4)"></path>
                                    <path d="M2.52998993,2.45968171 C0.838457782,2.45968171 0.565591069,2.98973418 0.565591069,2.98973418 C-0.803571995,1.1684977 0.495563328,-0.0119112916 2.51308668,2.71050543e-20 C4.5414764,0.0262048414 5.87683297,1.1684977 4.49801091,2.98973418 C4.49801091,2.98973418 4.24687694,2.45968171 2.52998993,2.45968171" id="Fill-23" fill="#949594" mask="url(#mask-4)"></path>
                                </g>
                                <path d="M41.3211964,20.7613812 C41.3211964,21.1961433 41.5010952,21.6178031 41.8198422,21.9691862 C42.1216859,21.6868886 42.2979626,21.303345 42.2979626,20.7911594 C42.2979626,20.4778925 42.1566998,19.9537956 41.8198422,19.9537956 C41.4479708,19.9537956 41.3211964,20.39094 41.3211964,20.7399409 L41.3211964,20.7613812 Z M47.2759691,20.5124352 C47.2759691,21.4427071 47.6659512,22.2669685 48.2889566,22.9316185 C49.3019441,22.4599314 49.9430601,21.6332877 49.9430601,20.4266739 C49.9430601,19.5845456 49.5156494,18.794827 48.7356853,18.7793423 C47.8639606,18.7602842 47.2759691,19.6703069 47.2759691,20.4957594 L47.2759691,20.5124352 Z M53.5675994,20.39094 C53.5675994,21.93107 54.3861995,23.3020597 55.6648094,24.3716937 C57.3732448,23.7225283 58.4912739,22.3896548 58.4912739,20.5815207 C58.4912739,18.9723052 57.6376599,17.2511236 56.0185703,17.2880486 C54.4574346,17.3035333 53.5675994,18.8484278 53.5675994,20.3730731 L53.5675994,20.39094 Z M28.1704697,23.387821 C28.1704697,22.355112 29.2015678,21.2306861 31.582511,21.3200208 C34.3739616,21.4427071 35.5825438,22.5992935 38.6734234,22.687437 C39.6526044,22.7219798 40.9143111,22.6171604 41.6785793,22.0751967 C41.3417218,21.6868886 41.1473344,21.2306861 41.1473344,20.7399409 C41.1473344,20.2837384 41.3417218,19.7751263 41.8198422,19.7751263 C42.2979626,19.7751263 42.5466819,20.3373392 42.5466819,20.7911594 C42.5466819,21.3545635 42.2665709,21.7595474 41.9272986,22.0751967 C42.743484,22.9316185 44.2901311,23.4569065 45.6774048,23.4569065 C46.4960049,23.4569065 47.3641074,23.3175444 48.1114725,23.0173798 C47.4703564,22.3193781 47.0996924,21.4772498 47.0996924,20.5124352 C47.0996924,19.5488117 47.739601,18.5482632 48.7356853,18.5673213 C49.6557049,18.5673213 50.2098899,19.5309448 50.2098899,20.4266739 C50.2098899,21.6868886 49.4625249,22.5456927 48.4133162,23.0709806 C49.5506633,24.1787308 51.3460297,24.8255139 53.1063822,24.8255139 C53.9599962,24.8255139 54.7592783,24.7016365 55.4523115,24.457455 C54.1737015,23.3711452 53.3913226,21.9501281 53.3913226,20.3730731 C53.3913226,18.7602842 54.3861995,17.1105703 56.0366809,17.1105703 C57.7789228,17.1105703 58.9343805,18.9020286 58.9343805,20.566036 C58.9343805,22.3705967 57.6557706,23.8082896 55.8072797,24.5110558 C57.4963971,25.8415471 59.9304647,26.6491326 62.3283112,26.6491326 C66.3114408,26.6491326 69.7222747,24.476513 69.7222747,20.8471425 C69.7222747,18.1992624 67.7663274,16.0242605 64.8022222,16.0242605 C62.6651687,16.0242605 60.7478575,17.0593518 60.2673223,18.8115028 C60.1960872,19.0580665 60.2480043,19.1116673 60.1779766,19.1116673 C60.1067415,19.1283431 60.0910456,18.9187044 60.1067415,18.794827 C60.3916819,16.9557235 62.5770304,15.8503557 64.8022222,15.8503557 C67.9075903,15.8503557 70.3621833,18.2504809 70.3621833,20.8614361 C70.3621833,24.7206945 66.5239387,26.8778294 62.3283112,26.8778294 C59.8061051,26.8778294 57.2983876,26.0023495 55.5935743,24.5980082 C54.8474167,24.8791147 54.0107059,25.0184768 53.1063822,25.0184768 C51.2760019,25.0184768 49.3912898,24.3180929 48.2358321,23.1615065 C47.4534532,23.4950226 46.5467147,23.6510605 45.6774048,23.6510605 C44.218896,23.6510605 42.637235,23.092421 41.783621,22.1776338 C41.0024494,22.7577137 39.7226321,22.8804 38.6927414,22.862533 C35.4255851,22.7922564 34.2314914,21.6178031 31.6030363,21.5129837 C29.2909135,21.423649 28.258608,22.4599314 28.2767187,23.4414218 C28.2767187,23.5641081 28.3334653,23.6343847 28.2767187,23.6510605 C28.2235942,23.6689275 28.1704697,23.4950226 28.1704697,23.4068791 L28.1704697,23.387821 L28.1704697,23.387821 Z" id="Fill-25" fill="#949594"></path>
                                <path d="M41.3211964,20.7613812 C41.3211964,21.1961433 41.5010952,21.6178031 41.8198422,21.9691862 C42.1216859,21.6868886 42.2979626,21.303345 42.2979626,20.7911594 C42.2979626,20.4778925 42.1566998,19.9537956 41.8198422,19.9537956 C41.4479708,19.9537956 41.3211964,20.39094 41.3211964,20.7399409 L41.3211964,20.7613812 Z M47.2759691,20.5124352 C47.2759691,21.4427071 47.6659512,22.2669685 48.2889566,22.9316185 C49.3019441,22.4599314 49.9430601,21.6332877 49.9430601,20.4266739 C49.9430601,19.5845456 49.5156494,18.794827 48.7356853,18.7793423 C47.8639606,18.7602842 47.2759691,19.6703069 47.2759691,20.4957594 L47.2759691,20.5124352 Z M53.5675994,20.39094 C53.5675994,21.93107 54.3861995,23.3020597 55.6648094,24.3716937 C57.3732448,23.7225283 58.4912739,22.3896548 58.4912739,20.5815207 C58.4912739,18.9723052 57.6376599,17.2511236 56.0185703,17.2880486 C54.4574346,17.3035333 53.5675994,18.8484278 53.5675994,20.3730731 L53.5675994,20.39094 Z M28.1704697,23.387821 C28.1704697,22.355112 29.2015678,21.2306861 31.582511,21.3200208 C34.3739616,21.4427071 35.5825438,22.5992935 38.6734234,22.687437 C39.6526044,22.7219798 40.9143111,22.6171604 41.6785793,22.0751967 C41.3417218,21.6868886 41.1473344,21.2306861 41.1473344,20.7399409 C41.1473344,20.2837384 41.3417218,19.7751263 41.8198422,19.7751263 C42.2979626,19.7751263 42.5466819,20.3373392 42.5466819,20.7911594 C42.5466819,21.3545635 42.2665709,21.7595474 41.9272986,22.0751967 C42.743484,22.9316185 44.2901311,23.4569065 45.6774048,23.4569065 C46.4960049,23.4569065 47.3641074,23.3175444 48.1114725,23.0173798 C47.4703564,22.3193781 47.0996924,21.4772498 47.0996924,20.5124352 C47.0996924,19.5488117 47.739601,18.5482632 48.7356853,18.5673213 C49.6557049,18.5673213 50.2098899,19.5309448 50.2098899,20.4266739 C50.2098899,21.6868886 49.4625249,22.5456927 48.4133162,23.0709806 C49.5506633,24.1787308 51.3460297,24.8255139 53.1063822,24.8255139 C53.9599962,24.8255139 54.7592783,24.7016365 55.4523115,24.457455 C54.1737015,23.3711452 53.3913226,21.9501281 53.3913226,20.3730731 C53.3913226,18.7602842 54.3861995,17.1105703 56.0366809,17.1105703 C57.7789228,17.1105703 58.9343805,18.9020286 58.9343805,20.566036 C58.9343805,22.3705967 57.6557706,23.8082896 55.8072797,24.5110558 C57.4963971,25.8415471 59.9304647,26.6491326 62.3283112,26.6491326 C66.3114408,26.6491326 69.7222747,24.476513 69.7222747,20.8471425 C69.7222747,18.1992624 67.7663274,16.0242605 64.8022222,16.0242605 C62.6651687,16.0242605 60.7478575,17.0593518 60.2673223,18.8115028 C60.1960872,19.0580665 60.2480043,19.1116673 60.1779766,19.1116673 C60.1067415,19.1283431 60.0910456,18.9187044 60.1067415,18.794827 C60.3916819,16.9557235 62.5770304,15.8503557 64.8022222,15.8503557 C67.9075903,15.8503557 70.3621833,18.2504809 70.3621833,20.8614361 C70.3621833,24.7206945 66.5239387,26.8778294 62.3283112,26.8778294 C59.8061051,26.8778294 57.2983876,26.0023495 55.5935743,24.5980082 C54.8474167,24.8791147 54.0107059,25.0184768 53.1063822,25.0184768 C51.2760019,25.0184768 49.3912898,24.3180929 48.2358321,23.1615065 C47.4534532,23.4950226 46.5467147,23.6510605 45.6774048,23.6510605 C44.218896,23.6510605 42.637235,23.092421 41.783621,22.1776338 C41.0024494,22.7577137 39.7226321,22.8804 38.6927414,22.862533 C35.4255851,22.7922564 34.2314914,21.6178031 31.6030363,21.5129837 C29.2909135,21.423649 28.258608,22.4599314 28.2767187,23.4414218 C28.2767187,23.5641081 28.3334653,23.6343847 28.2767187,23.6510605 C28.2235942,23.6689275 28.1704697,23.4950226 28.1704697,23.4068791 L28.1704697,23.387821 Z" id="Stroke-26" stroke="#949594" stroke-width="0.5"></path>
                                <path d="M142.47989,20.7399409 C142.47989,20.39094 142.353115,19.9537956 141.981244,19.9537956 C141.644386,19.9537956 141.501916,20.4778925 141.501916,20.7911594 C141.501916,21.303345 141.680608,21.6868886 141.981244,21.9691862 C142.299991,21.6178031 142.47989,21.1961433 142.47989,20.7613812 L142.47989,20.7399409 Z M136.525117,20.4957594 C136.525117,19.6703069 135.938333,18.7602842 135.065401,18.7793423 C134.286644,18.794827 133.858026,19.5845456 133.858026,20.4266739 C133.858026,21.6332877 134.497935,22.4599314 135.510922,22.9316185 C136.135135,22.2669685 136.525117,21.4427071 136.525117,20.5124352 L136.525117,20.4957594 Z M130.233487,20.3730731 C130.233487,18.8484278 129.344859,17.3035333 127.781308,17.2880486 C126.163426,17.2511236 125.309812,18.9723052 125.309812,20.5815207 C125.309812,22.3896548 126.429049,23.7225283 128.136277,24.3716937 C129.416094,23.3020597 130.233487,21.93107 130.233487,20.39094 L130.233487,20.3730731 Z M155.630616,23.4068791 C155.630616,23.4950226 155.576285,23.6689275 155.525575,23.6510605 C155.468828,23.6343847 155.525575,23.5641081 155.525575,23.4414218 C155.541271,22.4599314 154.51138,21.423649 152.19805,21.5129837 C149.569595,21.6178031 148.375501,22.7922564 145.109552,22.862533 C144.078454,22.8804 142.798637,22.7577137 142.016258,22.1776338 C141.162644,23.092421 139.58219,23.6510605 138.123681,23.6510605 C137.254371,23.6510605 136.34884,23.4950226 135.565254,23.1615065 C134.409796,24.3180929 132.526292,25.0184768 130.693497,25.0184768 C129.79038,25.0184768 128.954877,24.8791147 128.207512,24.5980082 C126.502698,26.0023495 123.993774,26.8778294 121.472775,26.8778294 C117.278355,26.8778294 113.437695,24.7206945 113.437695,20.8614361 C113.437695,18.2504809 115.891081,15.8503557 119.000071,15.8503557 C121.222848,15.8503557 123.409404,16.9557235 123.694345,18.794827 C123.711248,18.9187044 123.694345,19.1283431 123.623109,19.1116673 C123.551874,19.1116673 123.604999,19.0580665 123.533764,18.8115028 C123.053229,17.0593518 121.135917,16.0242605 119.000071,16.0242605 C116.033551,16.0242605 114.078811,18.1992624 114.078811,20.8471425 C114.078811,24.476513 117.490853,26.6491326 121.472775,26.6491326 C123.870621,26.6491326 126.304689,25.8415471 127.993806,24.5110558 C126.145316,23.8082896 124.866706,22.3705967 124.866706,20.566036 C124.866706,18.9020286 126.020956,17.1105703 127.764405,17.1105703 C129.416094,17.1105703 130.410971,18.7602842 130.410971,20.3730731 C130.410971,21.9501281 129.627385,23.3711452 128.349982,24.457455 C129.043015,24.7016365 129.839883,24.8255139 130.693497,24.8255139 C132.455056,24.8255139 134.250423,24.1787308 135.38777,23.0709806 C134.339769,22.5456927 133.591196,21.6868886 133.591196,20.4266739 C133.591196,19.5309448 134.144174,18.5673213 135.065401,18.5673213 C136.060278,18.5482632 136.702601,19.5488117 136.702601,20.5124352 C136.702601,21.4772498 136.329522,22.3193781 135.689614,23.0173798 C136.436979,23.3175444 137.305081,23.4569065 138.123681,23.4569065 C139.512162,23.4569065 141.056395,22.9316185 141.873787,22.0751967 C141.534515,21.7595474 141.253197,21.3545635 141.253197,20.7911594 C141.253197,20.3373392 141.501916,19.7751263 141.981244,19.7751263 C142.458157,19.7751263 142.653752,20.2837384 142.653752,20.7399409 C142.653752,21.2306861 142.458157,21.6868886 142.122507,22.0751967 C142.887982,22.6171604 144.149689,22.7219798 145.126455,22.687437 C148.21975,22.5992935 149.427124,21.4427071 152.218575,21.3200208 C154.599518,21.2306861 155.630616,22.355112 155.630616,23.387821 L155.630616,23.4068791 L155.630616,23.4068791 Z" id="Fill-27" fill="#949594"></path>
                                <path d="M142.47989,20.7399409 C142.47989,20.39094 142.353115,19.9537956 141.981244,19.9537956 C141.644386,19.9537956 141.501916,20.4778925 141.501916,20.7911594 C141.501916,21.303345 141.680608,21.6868886 141.981244,21.9691862 C142.299991,21.6178031 142.47989,21.1961433 142.47989,20.7613812 L142.47989,20.7399409 Z M136.525117,20.4957594 C136.525117,19.6703069 135.938333,18.7602842 135.065401,18.7793423 C134.286644,18.794827 133.858026,19.5845456 133.858026,20.4266739 C133.858026,21.6332877 134.497935,22.4599314 135.510922,22.9316185 C136.135135,22.2669685 136.525117,21.4427071 136.525117,20.5124352 L136.525117,20.4957594 Z M130.233487,20.3730731 C130.233487,18.8484278 129.344859,17.3035333 127.781308,17.2880486 C126.163426,17.2511236 125.309812,18.9723052 125.309812,20.5815207 C125.309812,22.3896548 126.429049,23.7225283 128.136277,24.3716937 C129.416094,23.3020597 130.233487,21.93107 130.233487,20.39094 L130.233487,20.3730731 Z M155.630616,23.4068791 C155.630616,23.4950226 155.576285,23.6689275 155.525575,23.6510605 C155.468828,23.6343847 155.525575,23.5641081 155.525575,23.4414218 C155.541271,22.4599314 154.51138,21.423649 152.19805,21.5129837 C149.569595,21.6178031 148.375501,22.7922564 145.109552,22.862533 C144.078454,22.8804 142.798637,22.7577137 142.016258,22.1776338 C141.162644,23.092421 139.58219,23.6510605 138.123681,23.6510605 C137.254371,23.6510605 136.34884,23.4950226 135.565254,23.1615065 C134.409796,24.3180929 132.526292,25.0184768 130.693497,25.0184768 C129.79038,25.0184768 128.954877,24.8791147 128.207512,24.5980082 C126.502698,26.0023495 123.993774,26.8778294 121.472775,26.8778294 C117.278355,26.8778294 113.437695,24.7206945 113.437695,20.8614361 C113.437695,18.2504809 115.891081,15.8503557 119.000071,15.8503557 C121.222848,15.8503557 123.409404,16.9557235 123.694345,18.794827 C123.711248,18.9187044 123.694345,19.1283431 123.623109,19.1116673 C123.551874,19.1116673 123.604999,19.0580665 123.533764,18.8115028 C123.053229,17.0593518 121.135917,16.0242605 119.000071,16.0242605 C116.033551,16.0242605 114.078811,18.1992624 114.078811,20.8471425 C114.078811,24.476513 117.490853,26.6491326 121.472775,26.6491326 C123.870621,26.6491326 126.304689,25.8415471 127.993806,24.5110558 C126.145316,23.8082896 124.866706,22.3705967 124.866706,20.566036 C124.866706,18.9020286 126.020956,17.1105703 127.764405,17.1105703 C129.416094,17.1105703 130.410971,18.7602842 130.410971,20.3730731 C130.410971,21.9501281 129.627385,23.3711452 128.349982,24.457455 C129.043015,24.7016365 129.839883,24.8255139 130.693497,24.8255139 C132.455056,24.8255139 134.250423,24.1787308 135.38777,23.0709806 C134.339769,22.5456927 133.591196,21.6868886 133.591196,20.4266739 C133.591196,19.5309448 134.144174,18.5673213 135.065401,18.5673213 C136.060278,18.5482632 136.702601,19.5488117 136.702601,20.5124352 C136.702601,21.4772498 136.329522,22.3193781 135.689614,23.0173798 C136.436979,23.3175444 137.305081,23.4569065 138.123681,23.4569065 C139.512162,23.4569065 141.056395,22.9316185 141.873787,22.0751967 C141.534515,21.7595474 141.253197,21.3545635 141.253197,20.7911594 C141.253197,20.3373392 141.501916,19.7751263 141.981244,19.7751263 C142.458157,19.7751263 142.653752,20.2837384 142.653752,20.7399409 C142.653752,21.2306861 142.458157,21.6868886 142.122507,22.0751967 C142.887982,22.6171604 144.149689,22.7219798 145.126455,22.687437 C148.21975,22.5992935 149.427124,21.4427071 152.218575,21.3200208 C154.599518,21.2306861 155.630616,22.355112 155.630616,23.387821 L155.630616,23.4068791 Z" id="Stroke-28" stroke="#949594" stroke-width="0.5"></path>
                                <path d="M167.58242,56.8954753 L157.707301,56.7132325 L162.814497,42.413727 L167.58242,56.8954753 Z M175.541435,65.3703593 L164.830813,32.9263833 L163.96754,32.9097075 C163.96754,32.9097075 155.409667,58.0961335 153.000954,63.8075978 C150.426831,69.8811654 148.434662,70.1301114 147.386661,70.5398598 C146.780559,70.9281679 134.04034,73.7130279 134.662138,55.8484728 C134.849281,50.3668964 138.01864,46.2848968 141.790479,45.8215475 C143.019586,45.6488338 149.336571,45.5999975 150.621218,53.4733612 L151.249053,53.4614499 L151.092094,44.3624143 L150.409928,44.3493119 C150.409928,44.3493119 148.89105,46.6291331 146.764863,45.5380588 C143.207937,43.6929997 138.667,44.9115249 138.667,44.9115249 C132.383821,46.4397436 126.969953,54.3547968 129.931643,63.1441389 C133.024937,72.2920108 141.309943,72.0097132 146.500448,71.9751704 C146.908541,71.9537301 158.192666,72.1335906 158.192666,72.1335906 L158.208362,71.3021825 C156.607383,71.1473357 155.451925,70.5470066 155.053491,69.4344919 C155.041417,69.3904202 155.026929,69.3511129 155.013648,69.3046589 C154.779417,68.6018927 154.818053,68.0873249 154.793906,67.5989619 C154.5802,64.1792301 157.359577,57.8841125 157.359577,57.8841125 L167.903582,58.0818399 C167.903582,58.0818399 170.812148,66.1493577 170.294184,68.8925282 C169.765354,71.6428454 165.851044,71.4403534 165.851044,71.4403534 L165.835348,72.2872463 L180.86475,72.5683527 L180.880446,71.7333712 C177.202783,71.5797155 175.541435,65.3703593 175.541435,65.3703593 L175.541435,65.3703593 Z" id="Fill-29" fill="#442C22"></path>
                                <path d="M28.1487369,62.5759703 L31.9483455,52.751537 L36.140351,62.4199323 L28.1487369,62.5759703 Z M48.4954177,71.5535107 C46.1325851,71.6428454 45.0640584,70.6494437 43.9532735,67.9289047 L33.5758868,44.8472039 L32.913038,44.857924 C32.913038,44.857924 25.6905218,63.0178792 24.0219297,66.991486 C22.1794757,71.3796059 18.637038,72.4730624 13.1169202,72.321789 C9.48513671,72.2169696 9.3752656,68.5554386 9.3752656,68.5554386 L8.77520031,38.7915032 C8.71845369,35.8506054 11.4604019,35.1799996 12.5047812,35.1287811 L12.4866706,34.2818883 L0,34.5260697 L0.0169032477,35.3574779 C3.91430922,35.4015497 3.79115699,39.0356847 3.79115699,39.0356847 L4.36707478,68.7757975 C4.32119454,72.0120954 1.36795569,72.524281 0.759438772,72.5516769 L0.77634202,73.3854674 L29.2063973,72.3920656 L29.1967383,71.814368 C27.6971787,71.814368 25.8993976,72.146693 25.6337751,70.0908041 C25.4333509,68.5435273 27.3880908,64.409118 27.6682017,63.8028333 L36.6498632,63.625355 C36.9106561,64.1792301 38.7869166,67.7228393 38.8038199,70.0955686 C38.8122715,71.5963914 37.1738638,71.7512381 36.2635032,71.7822075 C35.7890049,71.8024567 35.3869491,71.8096035 35.2468936,71.8119857 L35.2565526,72.3920656 L48.5074914,72.1312083 L48.4954177,71.5535107 L48.4954177,71.5535107 Z" id="Fill-30" fill="#442C22"></path>
                                <path d="M113.570507,56.671543 L111.885011,56.671543 L111.885011,46.7911267 C112.76881,45.9799677 114.666803,45.9335137 115.516795,45.9335137 C116.370409,45.9335137 120.626405,46.1931798 120.570866,51.0160618 C120.515327,55.9806881 115.700316,56.671543 113.570507,56.671543 Z M86.4661489,61.5265855 L90.4203015,51.7771933 L94.4722514,61.5265855 L86.4661489,61.5265855 Z M125.368973,74.120394 C128.085567,76.0393031 133.276071,76.0607434 134.092257,76.0142894 L134.092257,75.429445 C133.792828,75.4437385 130.799746,75.5318821 128.540747,72.3932568 C126.524431,69.6143524 124.555203,65.284598 123.37439,62.9952477 C121.041742,58.9823336 118.075222,57.8626722 118.075222,57.8626722 C124.844973,57.6649447 125.292909,52.7634483 125.292909,52.7634483 C126.029408,47.1544211 121.894149,45.0044329 116.931838,45.0770918 L103.688144,45.1259281 L103.688144,45.9120733 C104.883445,45.9287492 107.09777,46.361129 107.09777,48.6314212 L107.09777,58.5535271 C107.09777,58.5535271 107.16659,68.162366 107.137613,69.1486209 C107.09777,70.4159824 106.197068,71.2009365 105.520939,71.2009365 C104.750633,71.2307147 104.146946,71.0913526 102.868336,68.7734153 C102.446962,68.0015636 102.165644,67.3643095 102.165644,67.3643095 L92.2494744,44.0765433 L91.5842108,44.0765433 C91.5842108,44.0765433 84.1467818,62.1042831 81.6149168,67.98727 C81.1706029,69.0461838 80.7854503,69.5714718 80.7371553,69.6691444 C80.1817629,70.7649832 79.6963982,71.1604381 79.1639459,71.1473357 C78.5578437,71.1425711 78.217364,70.7423518 78.0519537,70.015763 C77.4204966,67.7252216 77.0860538,63.569372 77.0860538,63.569372 L77.0691505,63.5717542 C76.6417399,58.4582368 75.9535362,50.1072302 75.8171028,48.2717002 C75.6106417,45.5821306 79.7338268,45.770329 79.7338268,45.770329 L79.7338268,44.977037 L71.3787929,44.986566 L70.7751055,46.5755323 L64.9688399,60.3497499 L58.5854492,44.9937128 L50.0734566,44.9937128 L50.0734566,45.8048717 C54.9186518,46.0704935 54.3970659,49.3830237 54.3970659,49.3830237 C54.3970659,49.3830237 53.7994153,56.0783607 53.3297465,62.4461372 C53.0701609,66.0362005 52.7828057,67.8574369 52.4290449,68.8436919 C52.0958094,69.8716363 51.424509,71.6094938 49.1993172,71.6094938 L49.1993172,72.1586043 L58.7931176,72.0192422 L58.7931176,71.4427357 C58.5323247,71.4260599 58.0517895,71.4475002 57.1945534,71.3355341 C54.3403193,70.9353147 54.6337113,67.0939231 54.6337113,67.0939231 L55.9171508,50.639665 L63.4270223,68.9902008 L71.1554286,50.4300262 C71.1554286,50.4300262 72.3519371,62.1161944 72.5535687,64.53776 C72.6646471,65.865869 72.6924168,66.8938134 72.6948315,67.7919248 C72.7044905,71.1675849 69.0304489,71.3915171 69.0304489,71.3915171 L69.0304489,71.9680237 L87.3414956,71.8310438 L87.3414956,71.2557284 C85.8020927,71.2259502 84.0381181,71.5237325 83.8111316,69.463079 C83.6457213,67.91342 85.6910142,63.5253002 85.9892358,62.9154421 L94.8996621,62.9154421 C95.1556256,63.4788462 97.0439598,67.4822312 96.8676831,69.7954041 C96.757812,71.2938446 95.3681236,71.2188034 94.4577629,71.2354792 C93.8709788,71.2450083 93.3783698,71.242626 93.3783698,71.242626 L93.3880288,71.8310438 L115.044711,71.8310438 L115.044711,71.2533462 C111.801702,71.1068373 111.889841,68.8365451 111.889841,68.8365451 L111.889841,57.9913141 C111.889841,57.9913141 115.144923,57.5327294 117.484816,61.6063911 C118.461582,63.3073236 120.911346,70.9770042 125.368973,74.120394 L125.368973,74.120394 Z" id="Fill-31" fill="#442C22"></path>
                                <path d="M37.8306757,91.6359483 C37.7268415,91.6383305 37.6012745,91.6407128 37.4974403,91.6419039 C37.4346568,91.6430951 37.4310347,91.3965313 37.4938182,91.3941491 C37.5976524,91.4132071 37.702694,91.412016 37.8065282,91.4096338 C40.2695729,91.3738999 41.3815651,90.3280885 41.3465513,88.0411205 C41.3139521,85.9209106 40.1283101,84.8262629 37.9574501,84.8584234 C37.6242146,84.8631879 37.3730807,84.8870105 37.0193199,84.9537137 C36.8828865,85.5957323 36.8539095,86.3985534 36.878057,87.9636971 L36.9722322,94.1825824 C37.0181125,97.2092416 37.0410526,97.3545594 38.9631933,97.4903481 C39.0271842,97.489157 39.0718571,97.7357207 38.9668155,97.7166626 C38.3401879,97.6428126 37.2958087,97.5975497 36.4397799,97.609461 C35.2493083,97.6273279 34.3111781,97.6821199 33.4563567,97.7988505 C33.3319971,97.8202909 33.3911585,97.572536 33.4322092,97.5713449 C35.2879443,97.3378836 35.3917786,97.3581328 35.3434836,94.206405 L35.2493083,88.00896 C35.2010133,84.8381742 35.0971791,84.8798637 33.2366145,84.7011943 C33.1943564,84.6821363 33.1291581,84.4355725 33.2535177,84.4534395 C34.1119612,84.5654056 34.6963307,84.5773169 35.8868023,84.5582588 C36.3866554,84.5523032 37.7630628,84.4498661 38.4935245,84.4379548 C41.165445,84.3986475 42.9813368,85.6695823 43.0115212,87.6873551 C43.046535,90.0350707 41.0253896,91.5894943 37.8306757,91.6359483" id="Fill-32" fill="#442C22"></path>
                                <path d="M37.8306757,91.6359483 C37.7268415,91.6383305 37.6012745,91.6407128 37.4974403,91.6419039 C37.4346568,91.6430951 37.4310347,91.3965313 37.4938182,91.3941491 C37.5976524,91.4132071 37.702694,91.412016 37.8065282,91.4096338 C40.2695729,91.3738999 41.3815651,90.3280885 41.3465513,88.0411205 C41.3139521,85.9209106 40.1283101,84.8262629 37.9574501,84.8584234 C37.6242146,84.8631879 37.3730807,84.8870105 37.0193199,84.9537137 C36.8828865,85.5957323 36.8539095,86.3985534 36.878057,87.9636971 L36.9722322,94.1825824 C37.0181125,97.2092416 37.0410526,97.3545594 38.9631933,97.4903481 C39.0271842,97.489157 39.0718571,97.7357207 38.9668155,97.7166626 C38.3401879,97.6428126 37.2958087,97.5975497 36.4397799,97.609461 C35.2493083,97.6273279 34.3111781,97.6821199 33.4563567,97.7988505 C33.3319971,97.8202909 33.3911585,97.572536 33.4322092,97.5713449 C35.2879443,97.3378836 35.3917786,97.3581328 35.3434836,94.206405 L35.2493083,88.00896 C35.2010133,84.8381742 35.0971791,84.8798637 33.2366145,84.7011943 C33.1943564,84.6821363 33.1291581,84.4355725 33.2535177,84.4534395 C34.1119612,84.5654056 34.6963307,84.5773169 35.8868023,84.5582588 C36.3866554,84.5523032 37.7630628,84.4498661 38.4935245,84.4379548 C41.165445,84.3986475 42.9813368,85.6695823 43.0115212,87.6873551 C43.046535,90.0350707 41.0253896,91.5894943 37.8306757,91.6359483 Z" id="Stroke-33" stroke="#442C22" stroke-width="0.5"></path>
                                <path d="M51.8531271,84.5904193 C51.5186843,84.5939927 51.2687577,84.6166242 50.9137895,84.642829 C50.7942594,85.0537686 50.7423422,86.0245388 50.7616602,87.5884914 L50.8015036,91.0677797 C51.1359464,91.0856466 51.2820388,91.0844555 51.6575324,91.079691 C54.7472046,91.0451482 55.8181461,89.8790328 55.7988281,88.1280729 C55.7650216,85.2657896 53.8996274,84.5665967 51.8531271,84.5904193 Z M61.3587892,97.7452497 C56.6415757,97.7988505 54.2449366,94.5923309 53.3092211,91.3500773 C52.8105753,91.4572789 52.1211643,91.5073063 51.6840946,91.5120709 C51.2240848,91.5168354 51.1407759,91.5180265 50.8063331,91.4799104 L50.8353101,93.9717526 C50.870324,97.0198521 50.8932641,97.1627876 52.8359302,97.286665 C52.8781883,97.3069142 52.9433866,97.5522868 52.8178196,97.5332287 C52.191192,97.4581876 51.1673382,97.4069691 50.2907841,97.4176892 C49.1003125,97.4307916 48.1621822,97.4832013 47.3073608,97.5963586 C47.2035266,97.6166078 47.2421626,97.3700441 47.2844207,97.3497949 C49.1606812,97.1425384 49.2439901,97.1615964 49.2065614,93.9896195 L49.1353263,87.7921745 C49.1075567,85.4027694 49.0363216,84.6845185 47.84585,84.697621 C47.6164488,84.7000032 47.3665222,84.744075 47.0755449,84.7893379 C47.0127614,84.7893379 46.9475631,84.5844637 47.0513974,84.541583 C47.8832786,84.2640499 49.8863135,84.1794798 52.1199569,84.1544661 C55.041804,84.1211144 57.4311988,84.9799186 57.4577611,87.225197 C57.4710422,88.3770189 56.7804238,90.0541288 54.661481,90.9427111 C55.7831322,93.9360187 59.0599475,97.5236997 61.3768998,97.498686 C61.4191579,97.498686 61.4843562,97.7452497 61.3587892,97.7452497 L61.3587892,97.7452497 Z" id="Fill-35" fill="#442C22"></path>
                                <path d="M51.8531271,84.5904193 C51.5186843,84.5939927 51.2687577,84.6166242 50.9137895,84.642829 C50.7942594,85.0537686 50.7423422,86.0245388 50.7616602,87.5884914 L50.8015036,91.0677797 C51.1359464,91.0856466 51.2820388,91.0844555 51.6575324,91.079691 C54.7472046,91.0451482 55.8181461,89.8790328 55.7988281,88.1280729 C55.7650216,85.2657896 53.8996274,84.5665967 51.8531271,84.5904193 Z M61.3587892,97.7452497 C56.6415757,97.7988505 54.2449366,94.5923309 53.3092211,91.3500773 C52.8105753,91.4572789 52.1211643,91.5073063 51.6840946,91.5120709 C51.2240848,91.5168354 51.1407759,91.5180265 50.8063331,91.4799104 L50.8353101,93.9717526 C50.870324,97.0198521 50.8932641,97.1627876 52.8359302,97.286665 C52.8781883,97.3069142 52.9433866,97.5522868 52.8178196,97.5332287 C52.191192,97.4581876 51.1673382,97.4069691 50.2907841,97.4176892 C49.1003125,97.4307916 48.1621822,97.4832013 47.3073608,97.5963586 C47.2035266,97.6166078 47.2421626,97.3700441 47.2844207,97.3497949 C49.1606812,97.1425384 49.2439901,97.1615964 49.2065614,93.9896195 L49.1353263,87.7921745 C49.1075567,85.4027694 49.0363216,84.6845185 47.84585,84.697621 C47.6164488,84.7000032 47.3665222,84.744075 47.0755449,84.7893379 C47.0127614,84.7893379 46.9475631,84.5844637 47.0513974,84.541583 C47.8832786,84.2640499 49.8863135,84.1794798 52.1199569,84.1544661 C55.041804,84.1211144 57.4311988,84.9799186 57.4577611,87.225197 C57.4710422,88.3770189 56.7804238,90.0541288 54.661481,90.9427111 C55.7831322,93.9360187 59.0599475,97.5236997 61.3768998,97.498686 C61.4191579,97.498686 61.4843562,97.7452497 61.3587892,97.7452497 Z" id="Stroke-36" stroke="#442C22" stroke-width="0.5"></path>
                                <path d="M69.7355558,84.2520505 C66.6253582,84.2711967 64.3434198,86.5093284 64.3675673,90.2768699 C64.3953369,94.8484236 67.4379215,97.1985215 70.380294,97.1807556 C73.4904915,97.1615964 75.77243,94.9246559 75.7482825,91.1547321 C75.7205129,86.5843695 72.6574029,84.2354628 69.7355558,84.2520505 Z M69.9033809,97.6571062 C65.6449698,97.683311 62.7025974,94.4887026 62.6807514,90.9677248 C62.6591319,87.5896825 65.7669147,83.803083 70.1919435,83.775687 C74.4708799,83.7494821 77.4132524,86.9440905 77.4350984,90.4448191 C77.4567179,93.8431106 74.348935,97.6309013 69.9033809,97.6571062 L69.9033809,97.6571062 Z" id="Fill-38" fill="#442C22"></path>
                                <path d="M69.7355558,84.2520505 C66.6253582,84.2711967 64.3434198,86.5093284 64.3675673,90.2768699 C64.3953369,94.8484236 67.4379215,97.1985215 70.380294,97.1807556 C73.4904915,97.1615964 75.77243,94.9246559 75.7482825,91.1547321 C75.7205129,86.5843695 72.6574029,84.2354628 69.7355558,84.2520505 Z M69.9033809,97.6571062 C65.6449698,97.683311 62.7025974,94.4887026 62.6807514,90.9677248 C62.6591319,87.5896825 65.7669147,83.803083 70.1919435,83.775687 C74.4708799,83.7494821 77.4132524,86.9440905 77.4350984,90.4448191 C77.4567179,93.8431106 74.348935,97.6309013 69.9033809,97.6571062 Z" id="Stroke-39" stroke="#442C22" stroke-width="0.5"></path>
                                <path d="M85.5304334,97.596368 C84.1105606,97.5987409 82.9611397,97.1473029 81.8962351,96.2420447 C81.7911935,96.1396076 81.9771293,95.0068438 82.0157652,93.5858267 C82.0157652,93.5250791 82.2668992,93.5250791 82.2668992,93.5655775 C82.4166137,95.7072277 83.5672419,97.1258626 85.7175765,97.1210981 C87.1362419,97.1187158 88.4703911,96.3147036 88.4679764,94.6256825 C88.4619395,91.2071418 82.3671113,91.1964216 82.3598671,87.4491293 C82.356245,85.5957323 83.9813715,83.7185128 86.2777984,83.713744 C87.4465373,83.7125571 88.2192572,83.9579297 88.9086682,84.3498112 C89.0547605,84.430808 89.1610095,85.1931307 89.1634243,86.5319599 C89.1634243,86.5927074 88.9340231,86.5927074 88.9122903,86.552209 C88.659949,85.0073145 87.6348877,84.1866265 86.1317061,84.1890088 C84.7963495,84.1913911 83.6082927,85.0382839 83.6107074,86.3544816 C83.6155369,89.6300868 89.6065308,89.558619 89.6137854,93.4893453 C89.6186046,95.7143745 87.9306946,97.5915941 85.5304334,97.596368" id="Fill-41" fill="#442C22"></path>
                                <path d="M85.5304334,97.596368 C84.1105606,97.5987409 82.9611397,97.1473029 81.8962351,96.2420447 C81.7911935,96.1396076 81.9771293,95.0068438 82.0157652,93.5858267 C82.0157652,93.5250791 82.2668992,93.5250791 82.2668992,93.5655775 C82.4166137,95.7072277 83.5672419,97.1258626 85.7175765,97.1210981 C87.1362419,97.1187158 88.4703911,96.3147036 88.4679764,94.6256825 C88.4619395,91.2071418 82.3671113,91.1964216 82.3598671,87.4491293 C82.356245,85.5957323 83.9813715,83.7185128 86.2777984,83.713744 C87.4465373,83.7125571 88.2192572,83.9579297 88.9086682,84.3498112 C89.0547605,84.430808 89.1610095,85.1931307 89.1634243,86.5319599 C89.1634243,86.5927074 88.9340231,86.5927074 88.9122903,86.552209 C88.659949,85.0073145 87.6348877,84.1866265 86.1317061,84.1890088 C84.7963495,84.1913911 83.6082927,85.0382839 83.6107074,86.3544816 C83.6155369,89.6300868 89.6065308,89.558619 89.6137854,93.4893453 C89.6186046,95.7143745 87.9306946,97.5915941 85.5304334,97.596368 Z" id="Stroke-42" stroke="#442C22" stroke-width="0.5"></path>
                                <path d="M103.295747,96.9245617 C103.190705,97.2545045 103.107396,97.296194 102.794686,97.2950029 C102.042492,97.2938118 100.748186,97.1889924 99.2450042,97.185419 C97.1997112,97.1818456 95.1121601,97.2187706 93.6307112,97.3188255 C93.5051442,97.3402658 93.5691351,97.0937021 93.6101858,97.0722618 C95.7182623,96.8495206 95.7605204,96.9328997 95.7653499,93.7406735 L95.7774236,87.5622866 C95.7822531,84.3510024 95.7412024,84.4534395 93.6331259,84.2033024 C93.5920752,84.2033024 93.5292917,83.9555475 93.6548587,83.9757967 C95.1363076,84.0818072 97.1188171,84.125879 99.1858428,84.1306435 C100.689024,84.1330257 102.065432,84.0722781 103.172595,83.9936636 C103.089286,84.2807257 103.047028,84.6726072 103.04582,85.103796 C103.044613,85.3098613 103.065138,85.721992 103.085664,85.887559 C103.085664,85.9483066 102.835737,85.9280574 102.835737,85.887559 C102.669119,84.9584782 102.252575,84.6499758 99.5396036,84.6452113 L97.5353614,84.642829 C97.4508452,85.1562057 97.4073797,86.1245937 97.4049649,87.4622317 L97.4001354,90.1815796 L99.5709954,90.1839618 C101.867422,90.1887264 101.699597,89.982661 101.827579,89.4264037 C101.848104,89.4073456 102.099238,89.3859053 102.077506,89.4275948 C101.994197,89.7360973 101.930206,90.2518562 101.928998,90.7235434 C101.928998,90.951049 101.948316,91.3834289 101.968842,91.5478047 C101.990575,91.6097434 101.740648,91.5894943 101.740648,91.5478047 C101.615081,90.8891103 101.511247,90.6008571 99.5709954,90.5960925 L97.4001354,90.5937103 L97.3940985,93.6608679 C97.389269,96.4207141 97.7647626,96.6672778 98.7246256,96.6696601 L99.7895302,96.6720424 C102.961304,96.6768069 103.150862,96.3683044 103.445461,94.990168 C103.465987,94.9699188 103.695388,94.9699188 103.695388,95.0306664 C103.610872,95.5464253 103.421314,96.493373 103.295747,96.9245617" id="Fill-44" fill="#442C22"></path>
                                <path d="M103.295747,96.9245617 C103.190705,97.2545045 103.107396,97.296194 102.794686,97.2950029 C102.042492,97.2938118 100.748186,97.1889924 99.2450042,97.185419 C97.1997112,97.1818456 95.1121601,97.2187706 93.6307112,97.3188255 C93.5051442,97.3402658 93.5691351,97.0937021 93.6101858,97.0722618 C95.7182623,96.8495206 95.7605204,96.9328997 95.7653499,93.7406735 L95.7774236,87.5622866 C95.7822531,84.3510024 95.7412024,84.4534395 93.6331259,84.2033024 C93.5920752,84.2033024 93.5292917,83.9555475 93.6548587,83.9757967 C95.1363076,84.0818072 97.1188171,84.125879 99.1858428,84.1306435 C100.689024,84.1330257 102.065432,84.0722781 103.172595,83.9936636 C103.089286,84.2807257 103.047028,84.6726072 103.04582,85.103796 C103.044613,85.3098613 103.065138,85.721992 103.085664,85.887559 C103.085664,85.9483066 102.835737,85.9280574 102.835737,85.887559 C102.669119,84.9584782 102.252575,84.6499758 99.5396036,84.6452113 L97.5353614,84.642829 C97.4508452,85.1562057 97.4073797,86.1245937 97.4049649,87.4622317 L97.4001354,90.1815796 L99.5709954,90.1839618 C101.867422,90.1887264 101.699597,89.982661 101.827579,89.4264037 C101.848104,89.4073456 102.099238,89.3859053 102.077506,89.4275948 C101.994197,89.7360973 101.930206,90.2518562 101.928998,90.7235434 C101.928998,90.951049 101.948316,91.3834289 101.968842,91.5478047 C101.990575,91.6097434 101.740648,91.5894943 101.740648,91.5478047 C101.615081,90.8891103 101.511247,90.6008571 99.5709954,90.5960925 L97.4001354,90.5937103 L97.3940985,93.6608679 C97.389269,96.4207141 97.7647626,96.6672778 98.7246256,96.6696601 L99.7895302,96.6720424 C102.961304,96.6768069 103.150862,96.3683044 103.445461,94.990168 C103.465987,94.9699188 103.695388,94.9699188 103.695388,95.0306664 C103.610872,95.5464253 103.421314,96.493373 103.295747,96.9245617 Z" id="Stroke-45" stroke="#442C22" stroke-width="0.5"></path>
                                <path d="M119.483021,96.6053391 C118.750145,97.1568319 117.49206,97.6845021 115.009697,97.6690175 C110.375793,97.6416215 107.493789,94.4732179 107.5154,90.9522402 C107.536047,87.5741979 110.734383,83.7625846 115.17873,83.7911717 C117.080345,83.803083 119.056818,84.5761258 119.473362,84.9072597 C119.638773,85.0120791 119.796939,86.4759768 119.830745,87.7314269 C119.85127,87.7933656 119.601344,87.7921745 119.601344,87.750485 C119.256035,86.1222114 117.764927,84.2795346 114.69578,84.2604766 C111.607315,84.2426096 109.277082,86.431905 109.252934,90.2006377 C109.225165,94.7924406 112.25809,97.1592142 115.200463,97.17589 C117.34959,97.1889924 119.466118,95.8835149 119.647224,93.7430558 C119.648432,93.7025574 119.898358,93.7037485 119.898358,93.7859364 C119.827123,95.0413866 119.650846,96.4826528 119.483021,96.6053391" id="Fill-46" fill="#442C22"></path>
                                <path d="M119.483021,96.6053391 C118.750145,97.1568319 117.49206,97.6845021 115.009697,97.6690175 C110.375793,97.6416215 107.493789,94.4732179 107.5154,90.9522402 C107.536047,87.5741979 110.734383,83.7625846 115.17873,83.7911717 C117.080345,83.803083 119.056818,84.5761258 119.473362,84.9072597 C119.638773,85.0120791 119.796939,86.4759768 119.830745,87.7314269 C119.85127,87.7933656 119.601344,87.7921745 119.601344,87.750485 C119.256035,86.1222114 117.764927,84.2795346 114.69578,84.2604766 C111.607315,84.2426096 109.277082,86.431905 109.252934,90.2006377 C109.225165,94.7924406 112.25809,97.1592142 115.200463,97.17589 C117.34959,97.1889924 119.466118,95.8835149 119.647224,93.7430558 C119.648432,93.7025574 119.898358,93.7037485 119.898358,93.7859364 C119.827123,95.0413866 119.650846,96.4826528 119.483021,96.6053391 Z" id="Stroke-47" stroke="#442C22" stroke-width="0.5"></path>
                                <path d="M135.75119,96.7828174 C135.013484,97.3307368 133.754192,97.8524514 131.271829,97.8238643 C126.637924,97.7702634 123.772824,94.5875663 123.813875,91.0653974 C123.852511,87.6885463 127.070165,83.8947999 131.516926,83.9448273 C133.414919,83.9662677 135.390185,84.7512218 135.804314,85.0847379 C135.968517,85.1895573 136.119439,86.6546462 136.146001,87.9112874 C136.166527,87.9732261 135.915393,87.9696527 135.9166,87.9279632 C135.579742,86.2973074 134.098294,84.448675 131.030354,84.4129411 C127.941889,84.3783983 125.598375,86.5545913 125.554909,90.323324 C125.500577,94.916318 128.521429,97.2985763 131.465009,97.3307368 C133.615344,97.3569416 135.737909,96.0621842 135.931089,93.9229163 C135.931089,93.8812268 136.181015,93.8824179 136.181015,93.9669881 C136.103743,95.2212471 135.919015,96.6613222 135.75119,96.7828174" id="Fill-49" fill="#442C22"></path>
                                <path d="M135.75119,96.7828174 C135.013484,97.3307368 133.754192,97.8524514 131.271829,97.8238643 C126.637924,97.7702634 123.772824,94.5875663 123.813875,91.0653974 C123.852511,87.6885463 127.070165,83.8947999 131.516926,83.9448273 C133.414919,83.9662677 135.390185,84.7512218 135.804314,85.0847379 C135.968517,85.1895573 136.119439,86.6546462 136.146001,87.9112874 C136.166527,87.9732261 135.915393,87.9696527 135.9166,87.9279632 C135.579742,86.2973074 134.098294,84.448675 131.030354,84.4129411 C127.941889,84.3783983 125.598375,86.5545913 125.554909,90.323324 C125.500577,94.916318 128.521429,97.2985763 131.465009,97.3307368 C133.615344,97.3569416 135.737909,96.0621842 135.931089,93.9229163 C135.931089,93.8812268 136.181015,93.8824179 136.181015,93.9669881 C136.103743,95.2212471 135.919015,96.6613222 135.75119,96.7828174 Z" id="Stroke-50" stroke="#442C22" stroke-width="0.5"></path>
                                <path d="M147.500154,84.6321088 C144.391164,84.5832726 142.058516,86.7713768 141.998147,90.5401095 C141.925705,95.1116632 144.91275,97.526082 147.85633,97.572536 C150.966527,97.6213723 153.299176,95.433268 153.359544,91.6645354 C153.433194,87.0929817 150.423209,84.6773718 147.500154,84.6321088 Z M147.36855,98.0382675 C143.110139,97.9727554 140.239002,94.713826 140.295749,91.1928482 C140.35008,87.8159971 143.543587,84.0961007 147.967408,84.1651862 C152.247552,84.2330806 155.117482,87.4896277 155.060735,90.9915474 C155.006404,94.3886478 151.814105,98.107353 147.36855,98.0382675 L147.36855,98.0382675 Z" id="Fill-52" fill="#442C22"></path>
                                <path d="M147.500154,84.6321088 C144.391164,84.5832726 142.058516,86.7713768 141.998147,90.5401095 C141.925705,95.1116632 144.91275,97.526082 147.85633,97.572536 C150.966527,97.6213723 153.299176,95.433268 153.359544,91.6645354 C153.433194,87.0929817 150.423209,84.6773718 147.500154,84.6321088 Z M147.36855,98.0382675 C143.110139,97.9727554 140.239002,94.713826 140.295749,91.1928482 C140.35008,87.8159971 143.543587,84.0961007 147.967408,84.1651862 C152.247552,84.2330806 155.117482,87.4896277 155.060735,90.9915474 C155.006404,94.3886478 151.814105,98.107353 147.36855,98.0382675 Z" id="Stroke-53" stroke="#442C22" stroke-width="0.5"></path>
                                <path d="M184.943263,70.6649284 L185.042267,70.6649284 C185.158175,70.6649284 185.252351,70.6280034 185.252351,70.5350953 C185.252351,70.4540985 185.191982,70.3981154 185.057963,70.3981154 C185.004839,70.3981154 184.964995,70.4052622 184.943263,70.4088356 L184.943263,70.6649284 Z M184.938433,71.1675849 L184.72835,71.1675849 L184.72835,70.2730469 C184.810451,70.2623267 184.926359,70.246842 185.074867,70.246842 C185.247521,70.246842 185.324793,70.2730469 185.385162,70.3159275 C185.440701,70.3552348 185.479337,70.4207469 185.479337,70.5076993 C185.479337,70.6160921 185.396028,70.6875598 185.292194,70.7197203 L185.292194,70.7304405 C185.379125,70.7578364 185.423798,70.8293042 185.452775,70.9496082 C185.479337,71.0865881 185.502277,71.1354244 185.517973,71.1675849 L185.297023,71.1675849 C185.269254,71.1354244 185.252351,71.058001 185.224581,70.9496082 C185.207678,70.855509 185.153346,70.8126284 185.037438,70.8126284 L184.938433,70.8126284 L184.938433,71.1675849 Z M184.379419,70.7042356 C184.379419,71.1032639 184.683677,71.417722 185.08694,71.417722 C185.479337,71.4236776 185.777559,71.1032639 185.777559,70.7090001 C185.777559,70.311163 185.479337,69.9895581 185.074867,69.9895581 C184.683677,69.9895581 184.379419,70.311163 184.379419,70.7042356 Z M186.010582,70.7042356 C186.010582,71.2045099 185.601282,71.602347 185.082111,71.602347 C184.561732,71.602347 184.147603,71.2045099 184.147603,70.7042356 C184.147603,70.2027702 184.561732,69.8096976 185.08694,69.8096976 C185.601282,69.8096976 186.010582,70.2027702 186.010582,70.7042356 L186.010582,70.7042356 Z" id="Fill-55" fill="#83898A"></path>
                            </g>
                        </g>
                    </g>
                </g>
            </g>
        </g>
    </g>
</svg>