<svg width="18" height="17" viewBox="0 0 18 17" fill="none" xmlns="http://www.w3.org/2000/svg">
<path fill-rule="evenodd" clip-rule="evenodd" d="M7.39167 14.7833C11.474 14.7833 14.7833 11.474 14.7833 7.39167C14.7833 3.30936 11.474 0 7.39167 0C3.30936 0 0 3.30936 0 7.39167C0 11.474 3.30936 14.7833 7.39167 14.7833ZM7.34239 13.1079C10.4722 13.1079 13.0093 10.5707 13.0093 7.44094C13.0093 4.31117 10.4722 1.77399 7.34239 1.77399C4.21262 1.77399 1.67545 4.31117 1.67545 7.44094C1.67545 10.5707 4.21262 13.1079 7.34239 13.1079Z" fill="#FFF7F7"/>
<rect x="11.531" y="12.118" width="2.20807" height="6.64046" rx="1.10403" transform="rotate(-49.1871 11.531 12.118)" fill="#FFF7F7"/>
</svg>
